<svg width="31" height="21" viewBox="0 0 31 21" fill="none" xmlns="http://www.w3.org/2000/svg">
<path d="M18.1667 19.1236H12.8334C10.0044 19.1236 7.29126 17.9998 5.29089 15.9994C3.2905 13.999 2.16669 11.2859 2.16669 8.45695V1.79028H7.50002V8.45695C7.50002 9.87143 8.06192 11.228 9.06215 12.2281C10.0623 13.2284 11.4189 13.7903 12.8334 13.7903V1.79028H18.1667V7.79028L18.2067 7.78495C19.668 7.60263 21.0125 6.89276 21.9873 5.78884C22.962 4.68491 23.4999 3.26297 23.5 1.79028H28.8334L28.3774 4.07158C28.1042 5.43706 27.5229 6.72209 26.6776 7.82868C25.8324 8.93527 24.7455 9.83425 23.5 10.457C24.7111 10.8605 25.7915 11.5821 26.628 12.5465C27.4645 13.5108 28.0263 14.6823 28.2547 15.9383L28.8334 19.1236H23.5C23.4999 17.6509 22.962 16.229 21.9873 15.1251C21.0125 14.0211 19.668 13.3113 18.2067 13.129V19.129L18.1667 19.1236Z" stroke="#F0E3CA" stroke-width="3" stroke-linecap="round" stroke-linejoin="round"/>
</svg>
